<?xml version="1.0" encoding="UTF-8" standalone="no"?><!DOCTYPE svg PUBLIC "-//W3C//DTD SVG 1.1//EN" "http://www.w3.org/Graphics/SVG/1.1/DTD/svg11.dtd"><svg width="100%" height="100%" viewBox="0 0 101 141" version="1.1" xmlns="http://www.w3.org/2000/svg" xmlns:xlink="http://www.w3.org/1999/xlink" xml:space="preserve" xmlns:serif="http://www.serif.com/" style="fill-rule:evenodd;clip-rule:evenodd;stroke-linejoin:round;stroke-miterlimit:1.41421;"><g id="andi"><path d="M91.073,1.119c-2.734,1.972 -13.274,6.212 -16.884,6.791l-1.083,0.173l0.125,-1.272c0.098,-0.992 -0.034,-1.576 -0.597,-2.654c-0.404,-0.774 -0.725,-1.662 -0.73,-2.018c-0.016,-1.281 -0.353,-1.446 -2.13,-1.046c-1.611,0.361 -6.911,2.011 -7.998,2.488c-0.301,0.133 -0.999,0.409 -1.527,0.604c-0.53,0.196 -1.666,0.774 -2.499,1.271c-0.833,0.498 -1.691,0.913 -1.888,0.913c-0.203,0 -0.861,0.254 -1.5,0.578c-1.246,0.633 -1.586,0.445 -1.595,-0.882c-0.008,-1.023 -0.571,-2.542 -1.099,-2.959c-0.658,-0.521 -2.388,-0.14 -3.748,0.824c-0.639,0.453 -1.401,0.99 -1.736,1.222c-0.535,0.372 -0.694,0.356 -1.527,-0.152c-0.5,-0.304 -1.136,-0.567 -1.375,-0.567c-0.246,0 -1.249,0.772 -2.249,1.729c-1,0.957 -2.164,1.894 -2.61,2.101c-0.445,0.206 -1.055,0.506 -1.361,0.669c-0.63,0.336 -5.665,0.612 -6.637,0.365c-0.415,-0.106 -0.945,-0.73 -1.513,-1.781c-0.479,-0.884 -1.039,-1.752 -1.236,-1.915c-0.583,-0.483 -3.249,-0.261 -3.249,0.27c0,0.636 -0.833,1.088 -1.666,0.904c-0.472,-0.105 -0.833,-0.281 -0.833,-0.406c0,-0.485 -0.889,-1.106 -1.583,-1.106c-0.383,0 -1.055,0.341 -1.5,0.76c-0.78,0.737 -0.805,0.844 -0.805,3.415c0,2.24 -0.102,2.845 -0.653,3.871c-0.519,0.968 -0.846,1.254 -1.596,1.401c-1.944,0.379 -3.355,0.798 -3.944,1.17c-0.338,0.215 -1.013,0.474 -1.513,0.581c-0.5,0.107 -0.971,0.299 -1.055,0.429c-0.083,0.127 -0.764,0.569 -1.486,0.965c-1.671,0.915 -3.433,2.919 -5.093,5.795c-1.313,2.273 -1.436,2.682 -1.881,6.221c-0.229,1.825 -0.16,6.105 0.122,7.604c0.057,0.307 0.255,1.465 0.442,2.599c0.627,3.788 2.894,10.092 4.922,13.686c0.499,0.885 0.905,1.666 0.905,1.742c0,0.188 1.444,2.12 1.833,2.453c0.183,0.157 0.414,0.962 0.513,1.792c0.1,0.829 0.228,1.879 0.286,2.336c0.336,2.654 0.329,2.686 -0.661,3.028c-0.499,0.173 -1.187,0.575 -1.513,0.884c-0.333,0.317 -0.855,0.65 -1.18,0.754c-1.234,0.395 -2.61,2.716 -2.61,4.403c0,1.073 0.962,4.977 1.615,6.553c0.506,1.222 2.855,3.605 4.244,4.305c0.722,0.364 1.395,0.773 1.468,0.893c0.605,0.987 0.626,13.355 0.034,20.212c-0.231,2.682 -0.488,5.921 -0.572,7.217c-0.085,1.299 -0.202,2.597 -0.264,2.903c-0.061,0.304 -0.192,1.548 -0.291,2.765c-0.1,1.216 -0.681,4.7 -1.292,7.742c-0.61,3.041 -1.092,5.716 -1.069,5.944c0.023,0.231 0.036,1.258 0.028,2.309c-0.012,1.631 0.071,1.969 0.597,2.433c0.333,0.294 0.788,0.47 1,0.387c0.278,-0.108 0.346,0.014 0.239,0.429c-0.229,0.885 0.093,1.355 0.927,1.355c0.662,0 0.867,-0.235 1.75,-2.005c0.551,-1.106 1.049,-2.314 1.11,-2.696c0.06,-0.37 0.26,-1.05 0.431,-1.465c0.171,-0.415 0.319,-0.967 0.319,-1.189c0,-0.23 0.118,-0.636 0.266,-0.913c0.26,-0.486 0.877,-3.539 1.57,-7.769c0.236,-1.434 0.438,-5.475 0.52,-10.368c0.157,-9.429 0.588,-18.881 0.874,-19.19c0.057,-0.061 0.325,0.088 0.602,0.336c0.528,0.47 1.427,0.621 1.469,0.245c0.25,-2.24 0.245,-2.27 -0.413,-2.521c-0.361,-0.138 -0.869,-0.226 -1.167,-0.202c-0.343,0.027 -0.538,-0.152 -0.558,-0.512c-0.103,-1.825 -0.433,-5.981 -0.564,-7.106c-0.142,-1.216 -0.08,-1.412 0.75,-2.35c1.028,-1.161 2.054,-3.263 1.795,-3.678c-0.098,-0.155 -0.562,-0.222 -1.062,-0.152c-0.5,0.071 -1.022,0.131 -1.194,0.139c-0.171,0.007 -0.443,0.318 -0.617,0.705c-0.371,0.821 -2.66,2.023 -4.27,2.243c-1.055,0.143 -1.288,0.069 -2,-0.64c-1.319,-1.313 -1.593,-1.935 -1.644,-3.732c-0.088,-3.042 0.891,-4.266 2.866,-3.586c0.722,0.248 0.948,0.209 1.403,-0.244c0.305,-0.304 0.541,-0.768 0.541,-1.064c0,-0.475 0.917,-1.052 1.444,-0.91c0.107,0.029 1.083,-0.134 2.166,-0.362c1.083,-0.228 2.128,-0.415 2.319,-0.415c0.198,0 0.81,1.521 1.425,3.539c1.888,6.194 2.611,7.236 6.725,9.691c3.411,2.036 5.61,2.623 9.275,2.477c4.138,-0.165 5.62,-0.914 9.664,-4.879c3.27,-3.206 4.757,-5.409 5.951,-8.809c0.611,-1.741 1.423,-5.337 1.636,-7.245c0.067,-0.599 0.299,-0.737 1.743,-1.037c2,-0.414 7.605,-0.478 8.192,-0.093c0.361,0.237 0.361,0.31 0,0.55c-0.227,0.151 -0.694,0.276 -1.027,0.276c-0.738,0 -1.159,0.691 -1.195,1.963c-0.015,0.517 0.036,5.115 0.114,10.203c0.157,10.313 -0.094,13.068 -1.362,14.986c-1.359,2.056 -3.639,2.749 -6.555,1.992c-2.277,-0.591 -4.472,-2.324 -5.008,-3.955c-0.355,-1.078 -0.954,-1.666 -1.712,-1.678c-0.277,-0.005 -0.571,-0.193 -0.659,-0.423c-0.198,-0.515 -1.169,-0.305 -1.656,0.359c-0.519,0.707 -0.249,3.207 0.49,4.535c0.2,0.359 0.357,0.72 0.363,0.829c0.034,0.709 3.156,2.752 5.85,3.828c2.777,1.109 4.997,1.053 7.636,-0.194c1.778,-0.84 4.693,-3.246 4.839,-3.993c0.042,-0.213 0.305,-1.134 0.584,-2.046c0.501,-1.642 0.61,-3.623 0.454,-8.295c-0.04,-1.217 -0.067,-2.635 -0.059,-3.152l0.014,-0.94l-0.135,-1.739c1.218,1.714 1.917,3.489 4.323,5.105c1.213,0.814 5.505,2.901 7.421,3.278c1.132,0.223 3.782,0.961 5.643,0.844c1.583,-0.098 3.162,-2 3.725,0.29c0.062,0.249 0.378,0.945 0.697,1.664c0.463,1.046 0.597,2.06 0.718,5.433c0.154,4.286 -0.071,5.806 -0.815,5.516c-0.216,-0.084 -0.722,-0.024 -1.139,0.136c-1.061,0.407 -1.027,1.61 0.056,2.012l1.114,0.47l-0.566,2.072c-0.366,1.382 -0.965,2.679 -1.011,2.831c-0.436,1.429 -1.04,3.121 -2.147,4.808c-0.489,0.747 -1.977,3.201 -1.914,3.307c0.139,0.237 -2.134,2.072 -3.495,3.276c-1.619,1.432 -5.135,4.099 -8.718,5.624c-1.233,0.525 -6.785,2.33 -9.006,2.81c-3.335,0.72 -9.052,-0.091 -13.579,-0.885c-1.86,-0.327 -3.726,-0.725 -4.137,-0.885c-0.413,-0.16 -1.861,-0.582 -3.221,-0.94c-1.972,-0.518 -2.744,-0.879 -3.819,-1.783c-0.742,-0.625 -2.568,-1.826 -4.068,-2.676c-3.221,-1.824 -3.997,-2.394 -5.775,-4.237c-1.734,-1.797 -4.283,-5.214 -4.476,-6c-0.162,-0.663 -1.464,-1.307 -1.995,-0.986c-0.17,0.102 -0.429,0.516 -0.583,0.931c-0.23,0.617 -0.1,1.216 0.749,3.456c0.566,1.493 1.363,3.281 1.774,3.982c0.786,1.338 3.225,3.721 4.919,4.807c0.55,0.351 1.499,1.094 2.11,1.648c1.417,1.287 4.138,2.889 6.804,4.008c1.138,0.477 2.271,1.039 2.499,1.238c1.2,1.051 4.388,2.111 8.747,2.908c2.777,0.508 4.32,0.763 4.971,0.822c0.314,0.028 -0.006,2.845 -0.695,6.108c-0.304,1.437 -0.624,2.958 -0.707,3.359c-0.119,0.57 0.014,0.843 0.597,1.231c0.418,0.278 1.166,0.504 1.694,0.511c0.527,0.008 1.005,0.173 1.083,0.373c0.171,0.443 2.055,0.443 2.208,0c0.068,-0.198 0.255,-2.087 0.416,-4.216c0.161,-2.129 0.434,-4.576 0.611,-5.461l0.014,-2.064l1.561,-0.65c4.486,0 11.766,-2.497 18.258,-6.566c3.437,-2.155 6.866,-4.89 9.163,-8.868c1.747,-3.028 4.763,-8.256 5.388,-10.718c0.242,-0.952 0.514,-2.77 0.81,-3.738c0.296,-0.968 0.206,-2.4 0.29,-3.095c0.085,-0.709 0.393,-2.963 0.371,-4.049c-0.049,-2.462 0.169,-2.832 -0.243,-3.603c-0.177,-0.331 -0.33,-1.871 -0.33,-2.179c0,-0.292 -0.007,-1.537 -0.662,-2.422l-0.7,-1.928l1.097,-1.507c0.603,-0.829 1.396,-2.165 1.763,-2.972c0.705,-1.549 1.747,-5.11 1.853,-6.332c0.063,-0.719 0.063,-0.719 2.035,-0.547c2.305,0.202 2.819,-0.049 3.027,-1.471c0.177,-1.217 0.287,-1.67 0.545,-2.268c0.204,-0.47 -0.538,-1.88 -0.99,-1.88c-0.15,0 -0.333,-0.016 -0.458,-0.041c-0.115,-0.023 -1.138,-0.247 -2.277,-0.498l-2.069,-0.456l-0.319,-1.272c-0.174,-0.691 -0.667,-1.726 -1.08,-2.267c-0.838,-1.098 -4.266,-3.592 -6.432,-4.68c-2.929,-1.471 -7.608,-2.377 -12.329,-2.387c-3.888,-0.009 -5.578,0.476 -6.423,1.841c-0.308,0.498 -0.784,0.957 -1.089,1.051c-0.305,0.093 -0.541,0.268 -0.541,0.4c0,0.134 -0.361,0.06 -0.833,-0.171c-1.005,-0.489 -3.721,-0.629 -5.804,-0.298c-2.416,0.385 -6.396,0.393 -6.545,0.013c-0.065,-0.165 -0.564,-0.468 -1.092,-0.663c-0.583,-0.216 -1.027,-0.587 -1.11,-0.927c-0.089,-0.361 -0.722,-0.842 -1.75,-1.327c-1.427,-0.673 -2.055,-0.779 -5.498,-0.926c-3.055,-0.13 -4.412,-0.068 -6.332,0.29c-3.387,0.633 -9.13,2.421 -11.302,3.52c-1.805,0.913 -4.165,2.875 -4.165,3.462c0,0.174 -0.167,0.44 -0.389,0.622c-0.216,0.177 -0.654,0.871 -0.986,1.562c-0.451,0.94 -0.848,1.349 -1.624,1.673c-0.563,0.235 -2.083,0.916 -3.36,1.507c-1.278,0.59 -2.396,1.016 -2.472,0.942c-0.37,-0.364 0.055,-10.371 0.505,-11.891c0.133,-0.453 0.33,-1.521 0.432,-2.351c0.163,-1.314 0.234,-2.184 0.367,-4.479c0.016,-0.276 0.177,-0.498 0.362,-0.498c0.185,0 1.333,-0.48 2.583,-1.082c3.516,-1.691 5.962,-4.558 7.664,-8.982c0.478,-1.244 1.392,-3.346 2.055,-4.728c0.663,-1.383 1.348,-3.011 1.541,-3.664c0.188,-0.636 0.443,-1.175 0.556,-1.175c0.114,0 1.124,0.438 2.235,0.968c1.111,0.53 2.473,1.043 3.013,1.134c0.552,0.092 1.597,0.439 2.374,0.788c0.774,0.346 2.25,0.903 3.333,1.258c1.083,0.354 2.085,0.746 2.263,0.884c0.176,0.138 1.361,0.61 2.638,1.051c1.277,0.442 2.98,1.047 3.791,1.348c3.071,1.138 8.191,1.358 13.523,0.582c0.911,-0.133 2.61,-0.318 3.749,-0.409c6.081,-0.483 12.034,-2.603 15.828,-5.636c0.834,-0.666 1.667,-1.391 1.833,-1.595c0.245,-0.298 0.378,-0.193 0.667,0.526c0.199,0.497 0.882,1.949 1.527,3.249c0.645,1.299 1.328,2.844 1.527,3.456c0.199,0.608 0.449,1.23 0.556,1.382c0.11,0.157 0.254,0.636 0.333,1.106c0.076,0.456 0.339,1.715 0.583,2.793c0.244,1.078 0.501,2.848 0.569,3.926c0.069,1.078 0.226,2.125 0.349,2.323c0.249,0.399 0.026,0.252 -2.279,-1.506c-0.749,-0.572 -1.516,-1.038 -1.707,-1.038c-0.195,0 -0.348,-0.122 -0.348,-0.277c0,-0.143 -0.18,-0.276 -0.374,-0.276c-0.205,0 -0.931,-0.308 -1.597,-0.679c-1.722,-0.955 -11.068,-4.163 -11.076,-3.8c-0.002,0.116 -0.083,0.083 -0.203,-0.083c-0.255,-0.357 -4.05,-1.26 -5.272,-1.255c-1.166,0.004 -1.411,0.718 -0.416,1.213c0.408,0.203 1.541,0.657 2.485,0.996c0.944,0.338 1.736,0.685 1.736,0.76c0,0.077 -0.708,0.095 -1.597,0.041c-1.444,-0.087 -1.598,-0.043 -1.605,0.457c-0.01,0.705 0.897,1.771 1.813,2.132c0.38,0.15 1.889,0.626 3.333,1.053c3.921,1.159 6.664,2.193 11.024,4.155c0.639,0.287 1.486,0.597 1.93,0.706c0.43,0.105 1.236,0.427 1.763,0.705c0.525,0.276 1.444,0.592 2,0.686c1.277,0.217 1.421,0.655 1.466,4.47c0.018,1.549 0.146,2.923 0.283,3.048c0.444,0.405 1.744,0.624 1.929,0.326c0.256,-0.411 0.718,-0.056 0.539,0.414c-0.147,0.386 0.809,1.521 1.281,1.521c0.273,0 0.434,-0.525 1.506,-4.921c0.377,-1.549 0.75,-2.92 0.827,-3.042c0.073,-0.117 0.203,-0.539 0.277,-0.899c0.076,-0.371 0.585,-2.364 1.125,-4.41c0.54,-2.046 1.055,-4.169 1.139,-4.7c0.082,-0.525 0.216,-1.145 0.291,-1.355c0.077,-0.215 0.201,-0.829 0.278,-1.382c0.077,-0.553 0.254,-1.426 0.399,-1.963c0.275,-1.022 0.168,-5.171 -0.167,-6.471c-0.399,-1.548 -2.571,-5.263 -3.287,-5.623c-0.377,-0.189 -1.169,-0.999 -1.735,-1.773c-0.728,-0.995 -1.464,-1.615 -2.444,-2.06c-0.778,-0.352 -1.768,-0.962 -2.222,-1.368c-0.694,-0.621 -0.768,-0.813 -0.488,-1.258c1.078,-1.708 3.545,-9.346 3.85,-11.917c0.128,-1.079 0.052,-1.371 -0.501,-1.922c-0.452,-0.45 -0.653,-0.982 -0.653,-1.728c0,-1.327 -0.761,-1.746 -1.805,-0.992Zm-22.225,6.494c0.252,1.217 0.515,1.684 1.315,2.335c1.381,1.126 3.138,1.674 5.359,1.674c2.265,0 3.694,-0.407 8.97,-2.556c2.249,-0.916 4.17,-1.611 4.243,-1.536c0.217,0.225 -0.642,2.157 -1.402,3.152c-0.377,0.494 -0.919,1.521 -1.225,2.323c-0.704,1.839 -2.338,3.954 -5.448,7.05c-4.11,4.093 -6.157,5.61 -8.359,6.195c-6.581,1.748 -8.49,2.062 -12.191,2.003c-3.221,-0.051 -5.073,-0.165 -7.359,-0.451c-0.381,-0.048 -1.693,-0.343 -2.915,-0.654c-1.222,-0.312 -2.659,-0.643 -3.194,-0.736c-0.928,-0.161 -3.11,-0.737 -6.331,-1.672c-0.805,-0.233 -1.749,-0.483 -2.083,-0.551c-0.338,-0.068 -2.208,-0.52 -4.179,-1.009c-3.305,-0.819 -3.594,-0.85 -3.916,-0.415c-0.463,0.626 -0.972,0.608 -0.825,-0.028c0.141,-0.613 -0.494,-1.426 -1.16,-1.485c-1.444,-0.128 -1.705,0.031 -2.197,1.347c-0.269,0.719 -0.586,1.391 -0.691,1.466c-0.107,0.075 -0.602,1.189 -1.094,2.46c-0.817,2.111 -3.393,7.355 -5.175,10.535c-1.162,2.074 -2.789,3.519 -4.533,4.027c-0.861,0.25 -1.989,0.477 -2.527,0.508l-0.972,0.055l-0.084,1.507c-0.046,0.829 -0.189,1.83 -0.319,2.226c-0.127,0.387 -0.127,0.891 0,1.092c0.137,0.217 0.068,0.691 -0.167,1.133c-0.219,0.415 -0.402,0.956 -0.402,1.189c0,0.249 -0.093,0.429 -0.222,0.429c-0.296,0 -0.84,-2.102 -1.053,-4.065c-0.174,-1.605 -1.292,-6.359 -2.32,-9.871c-0.565,-1.926 -0.595,-4.147 -0.131,-9.483c0.197,-2.268 1.423,-3.958 3.365,-4.642c1.136,-0.399 3.415,-1.434 8.081,-3.67c0.5,-0.239 0.888,-0.528 0.888,-0.661c0,-0.129 0.5,-0.435 1.111,-0.679c1.252,-0.501 1.83,-1.353 2.119,-3.123c0.104,-0.635 0.283,-1.133 0.408,-1.133c0.175,0 0.534,0.608 0.653,1.106c0.146,0.608 0.805,1.381 1.319,1.546c1.523,0.489 8.219,-0.261 12.801,-1.434c2.632,-0.673 5.998,-1.958 8.942,-3.413l2.777,-1.372l0.278,0.802c0.153,0.442 0.508,1.075 0.791,1.41c0.464,0.55 0.694,0.593 2.388,0.442c1.028,-0.09 2.615,-0.372 3.513,-0.623c1.941,-0.542 7.609,-2.56 9.969,-3.549c2.555,-1.071 2.81,-1.007 3.184,0.799Zm17.782,16.23c0,-0.315 6.497,1.825 6.629,2.185c0.053,0.145 0.23,0.249 0.424,0.249c0.541,0 1.698,1.382 2.523,3.013c0.657,1.303 0.751,1.798 0.726,3.871c-0.015,1.3 -0.078,2.629 -0.138,2.931c-0.062,0.304 -0.195,1.549 -0.297,2.765c-0.452,5.392 -1.539,11.356 -1.889,10.369c-0.081,-0.228 -0.415,-2.655 -0.742,-5.392c-0.727,-6.083 -2.141,-10.076 -2.89,-12.138c-0.4,-1.101 -1.098,-2.447 -1.278,-2.889c-0.172,-0.425 -0.819,-1.273 -1.402,-1.839c-0.583,-0.566 -0.894,-1.521 -1.027,-1.521c-0.445,0 -1.655,-1.261 -1.539,-1.604c0.096,-0.282 0.206,-0.291 0.511,-0.041c0.222,0.182 0.389,0.2 0.389,0.041Zm-38.238,32.53c1.11,0.496 1.288,0.671 1.069,1.051c-0.142,0.246 -0.168,0.788 -0.056,1.175c0.116,0.398 0.233,1.701 0.264,2.917c0.031,1.217 0.106,2.285 0.17,2.392c0.103,0.175 -0.316,1.963 -1.142,4.866c-0.487,1.714 -1.556,3.677 -2.575,4.728c-0.992,1.023 -3.631,3.217 -4.034,3.353c-0.17,0.058 -0.861,0.349 -1.555,0.657c-2.888,1.28 -7.03,1.057 -9.664,-0.518c-1.914,-1.146 -2.074,-1.307 -3.743,-3.796c-1.78,-2.653 -2.764,-5.917 -2.834,-9.401c-0.063,-3.142 -0.282,-2.874 4.189,-5.117c2.46,-1.235 3.888,-1.715 8.303,-2.795c0.613,-0.15 3.166,-0.235 5.693,-0.189c3.971,0.072 4.759,0.162 5.915,0.677Zm31.851,0.98c1.722,0.28 7.683,2.272 8.72,2.914c1.907,1.179 2.219,1.761 2.208,4.111c-0.012,2.595 -0.186,3.871 -0.944,6.94c-1.517,6.138 -4.057,8.599 -8.873,8.599c-2.414,0 -4.609,-1.146 -7.636,-2.868c-2.416,-1.375 -3.235,-2.869 -3.886,-4.352c-0.59,-1.344 -1.077,-8.596 -0.55,-10.891c0.209,-0.912 0.392,-1.97 0.406,-2.35c0.044,-1.24 0.697,-1.738 2.724,-2.077c2.027,-0.339 5.832,-0.352 7.831,-0.026Z" style="fill:#6963d9;fill-rule:nonzero;"/><path d="M44.103,37.233c-3.19,0.469 -9.154,2.324 -10.368,3.225c-0.328,0.243 -1.76,1.011 -3.186,1.709c-3.143,1.538 -5.733,3.478 -6.893,5.163c-1.245,1.808 -1.342,2.372 -0.488,2.85c0.664,0.372 0.993,0.254 1.014,-0.363c0.002,-0.075 0.442,-0.517 0.968,-0.971l0.964,-0.833l0.61,0.679c1.017,1.132 1.474,1.006 5.025,-1.38c2.483,-1.669 3.56,-2.174 7.989,-3.752c1.783,-0.635 3.541,-1.036 5.061,-1.154c2.778,-0.215 3.265,-0.478 3.169,-1.707c-0.047,-0.615 0.067,-1.016 0.343,-1.203c0.518,-0.353 0.418,-1.288 -0.201,-1.87c-0.467,-0.441 -2.398,-0.63 -4.007,-0.393Z" style="fill:#6963d9;fill-rule:nonzero;"/><path d="M11.756,72.483c-0.351,0.913 -0.17,2.044 0.374,2.336c1.167,0.626 2.499,0.029 2.499,-1.119c0,-1.272 -2.452,-2.31 -2.873,-1.217Z" style="fill:#6963d9;fill-rule:nonzero;"/><path d="M19.651,81.599c-0.657,0.379 -0.611,1.275 0.083,1.642c0.777,0.411 1.848,0.108 2.07,-0.587c0.352,-1.102 -0.959,-1.745 -2.153,-1.055Z" style="fill:#6963d9;fill-rule:nonzero;"/><path d="M21.317,84.089c-0.685,0.407 -0.604,0.833 0.356,1.856c1.063,1.133 2.098,1.206 2.362,0.165c0.364,-1.437 -1.442,-2.781 -2.718,-2.021Z" style="fill:#6963d9;fill-rule:nonzero;"/><path d="M82.201,88.82c-0.211,0.509 -0.125,0.762 0.43,1.264c0.861,0.778 1.317,0.798 2.027,0.091c0.675,-0.671 0.5,-1.341 -0.444,-1.704c-1.083,-0.416 -1.742,-0.301 -2.013,0.349Z" style="fill:#6963d9;fill-rule:nonzero;"/><path d="M42.713,90.617c-0.451,0.545 -0.042,1.325 0.875,1.669c0.749,0.281 0.932,0.251 1.416,-0.231c0.666,-0.663 0.67,-0.869 0.028,-1.441c-0.584,-0.519 -1.888,-0.517 -2.319,0.003Z" style="fill:#6963d9;fill-rule:nonzero;"/><path d="M24.786,91.723c-0.469,1.217 1.788,2.072 2.411,0.913c0.238,-0.443 0.236,-0.673 -0.008,-0.968c-0.467,-0.565 -2.179,-0.525 -2.403,0.055Z" style="fill:#6963d9;fill-rule:nonzero;"/><path d="M34.232,94.395c-0.234,0.059 -0.532,0.451 -0.68,0.895c-0.216,0.648 -0.144,1.012 0.403,2.025c0.373,0.691 0.8,1.316 0.971,1.419c0.167,0.102 0.205,0.187 0.084,0.189c-0.424,0.006 2.443,3.085 4.026,4.324c3.306,2.587 6.137,3.901 9.581,4.449c1.499,0.238 2.845,0.51 2.999,0.605c0.153,0.096 1.888,0.141 3.887,0.1c3.88,-0.079 5.999,-0.468 10.275,-1.884c2.222,-0.736 3.168,-1.291 3.312,-1.944c0.04,-0.185 0.176,-0.666 0.291,-1.037c0.276,-0.888 -0.208,-1.901 -0.909,-1.901c-0.889,0 -3.146,0.793 -3.305,1.161c-0.173,0.402 -2.388,1.336 -4.249,1.793c-2.209,0.542 -5.109,0.546 -8.469,0.012c-3.499,-0.556 -9.092,-2.22 -9.997,-2.974c-0.324,-0.269 -1.028,-0.678 -1.583,-0.919c-1.107,-0.479 -3.106,-2.476 -4.093,-3.76c-0.269,-0.352 -1.361,-1.812 -1.515,-2.349c-0.113,-0.394 -0.112,-0.435 -1.029,-0.204Z" style="fill:#6963d9;fill-rule:nonzero;"/><path d="M64.859,94.184c-0.402,0.401 -0.306,1.345 0.111,1.088c0.103,-0.064 0.344,0.198 0.514,0.557c0.244,0.518 0.541,0.678 1.263,0.678c1.5,0 1.811,-1.638 0.444,-2.34c-1.027,-0.528 -1.791,-0.522 -2.332,0.017Z" style="fill:#6963d9;fill-rule:nonzero;"/><path d="M75.358,94.627c-0.356,1.133 1.568,1.837 2.497,0.912c0.25,-0.249 0.444,-0.527 0.444,-0.636c0,-0.499 -0.75,-0.885 -1.722,-0.885c-0.805,0 -1.069,0.132 -1.219,0.609Z" style="fill:#6963d9;fill-rule:nonzero;"/><path d="M82.104,94.6c-0.651,0.373 -0.584,1.274 0.111,1.493c0.999,0.317 1.916,-0.067 1.916,-0.803c0,-0.913 -1.028,-1.263 -2.027,-0.69Z" style="fill:#6963d9;fill-rule:nonzero;"/><path d="M68.774,94.737c-0.701,0.699 0.639,2.323 1.916,2.323c0.945,0 1.422,-1.255 0.757,-1.991c-0.449,-0.498 -2.278,-0.725 -2.673,-0.332Z" style="fill:#6963d9;fill-rule:nonzero;"/><path d="M61.554,96.155c-0.743,0.113 -1.583,1.209 -1.583,2.066c0,0.555 0.889,0.97 1.667,0.779c0.487,-0.12 0.795,-0.475 1.033,-1.194c0.321,-0.968 0.232,-1.896 -0.173,-1.806c-0.089,0.02 -0.527,0.092 -0.944,0.155Z" style="fill:#6963d9;fill-rule:nonzero;"/><path d="M47.406,96.908c-0.077,0.414 0.058,0.843 0.347,1.104c0.83,0.749 2.222,0.43 2.222,-0.51c0,-0.84 -0.528,-1.272 -1.556,-1.272c-0.722,0 -0.912,0.127 -1.013,0.678Z" style="fill:#6963d9;fill-rule:nonzero;"/><path d="M19.483,98.027c-0.34,0.736 0.084,1.284 1.334,1.723c0.944,0.332 1.595,0.14 1.816,-0.534c0.255,-0.779 -0.705,-1.676 -1.899,-1.774c-0.75,-0.062 -1.008,0.059 -1.251,0.585Z" style="fill:#6963d9;fill-rule:nonzero;"/><path d="M72.891,99.272c-0.356,1.106 1.325,1.814 2.215,0.933c0.769,-0.762 0.416,-1.33 -0.889,-1.428c-0.972,-0.073 -1.166,-0.001 -1.326,0.495Z" style="fill:#6963d9;fill-rule:nonzero;"/><path d="M27.232,99.792c-0.249,0.163 -0.324,0.503 -0.209,0.945c0.135,0.519 0.458,0.76 1.292,0.968c1.055,0.263 1.119,0.241 1.291,-0.429c0.099,-0.387 0.056,-0.904 -0.095,-1.147c-0.32,-0.515 -1.696,-0.719 -2.279,-0.337Z" style="fill:#6963d9;fill-rule:nonzero;"/><path d="M77.064,101.262c-0.492,0.71 -0.292,1.236 0.652,1.717c1.305,0.665 2.852,-0.453 1.916,-1.385c-0.219,-0.217 -0.777,-0.502 -1.277,-0.65c-0.75,-0.221 -0.952,-0.171 -1.291,0.318Z" style="fill:#6963d9;fill-rule:nonzero;"/><path d="M82.131,102.957c-0.277,0.211 -0.5,0.514 -0.5,0.683c0,0.166 -0.322,0.65 -0.708,1.065c-0.592,0.636 -0.644,0.823 -0.319,1.141c0.583,0.57 1.759,0.671 2.249,0.192c0.27,-0.264 0.445,-0.918 0.445,-1.665c0,-0.664 0.006,-1.319 0.014,-1.424c0.027,-0.376 -0.681,-0.371 -1.181,0.008Z" style="fill:#6963d9;fill-rule:nonzero;"/><path d="M24.931,103.917c-0.22,0.263 -0.583,0.774 -0.825,1.161c-0.779,1.245 0.21,2.439 1.598,1.931c0.583,-0.214 1.422,-2.749 1.087,-3.286c-0.282,-0.45 -1.42,-0.332 -1.86,0.194Z" style="fill:#6963d9;fill-rule:nonzero;"/><path d="M72.69,104.34c-0.778,0.585 -1.433,2.347 -1.046,2.812c0.98,1.175 2.49,-0.166 2.49,-2.212c0,-1.078 -0.521,-1.295 -1.444,-0.6Z" style="fill:#6963d9;fill-rule:nonzero;"/><path d="M30.842,104.503c-0.601,0.38 -0.112,1.318 0.86,1.652c0.5,0.172 0.998,0.197 1.139,0.057c0.363,-0.361 0.429,-1.217 0.124,-1.604c-0.312,-0.395 -1.568,-0.457 -2.123,-0.105Z" style="fill:#6963d9;fill-rule:nonzero;"/><path d="M41.144,110.719c-0.255,0.553 -0.199,0.762 0.333,1.258c0.778,0.724 1.322,0.744 1.929,0.069c0.896,-0.996 0.348,-1.991 -1.096,-1.991c-0.638,0 -0.939,0.171 -1.166,0.664Z" style="fill:#6963d9;fill-rule:nonzero;"/><path d="M74.769,111.493c-0.642,0.802 -0.67,1.569 -0.08,2.156c0.694,0.692 1.724,0.716 2.318,0.056c0.64,-0.712 0.57,-1.13 -0.318,-1.903c-0.834,-0.724 -1.501,-0.832 -1.92,-0.309Z" style="fill:#6963d9;fill-rule:nonzero;"/><path d="M37.284,111.719c-0.694,0.279 -0.829,1.158 -0.25,1.636c1.089,0.9 2.666,0.322 2.666,-0.977c0,-0.9 -1.083,-1.196 -2.416,-0.659Z" style="fill:#6963d9;fill-rule:nonzero;"/><path d="M32.424,111.896c-0.722,0.192 -0.822,0.868 -0.194,1.303c0.877,0.607 1.899,0.063 1.909,-1.015c0.005,-0.481 -0.604,-0.584 -1.715,-0.288Z" style="fill:#6963d9;fill-rule:nonzero;"/><path d="M47.809,113.041c-0.361,0.063 -0.706,0.279 -0.792,0.498c-0.085,0.215 -0.375,0.387 -0.652,0.387c-0.278,0 -0.644,0.172 -0.823,0.387c-0.7,0.84 0.878,2.179 2.044,1.736c0.945,-0.359 1.906,-2.786 1.194,-3.012c-0.188,-0.06 -0.61,-0.058 -0.971,0.004Z" style="fill:#6963d9;fill-rule:nonzero;"/><path d="M54.043,113.29c-0.357,0.359 -0.181,1.41 0.264,1.576c0.244,0.092 0.805,0.166 1.249,0.166c0.889,0 1.349,-0.872 0.803,-1.521c-0.349,-0.415 -1.97,-0.569 -2.316,-0.221Z" style="fill:#6963d9;fill-rule:nonzero;"/><path d="M65.109,113.603c-1.222,0.155 -1.561,0.815 -0.806,1.567c0.649,0.646 1.964,0.553 2.352,-0.166c0.437,-0.808 -0.38,-1.548 -1.546,-1.401Z" style="fill:#6963d9;fill-rule:nonzero;"/><path d="M68.094,114.189c-0.289,0.449 -0.229,0.677 0.36,1.368c0.801,0.94 1.767,1.107 2.459,0.424c0.994,-0.982 0.111,-2.332 -1.528,-2.332c-0.638,0 -1.056,0.175 -1.291,0.54Z" style="fill:#6963d9;fill-rule:nonzero;"/><path d="M19.345,115.751c-0.366,0.364 -0.194,1.405 0.306,1.855c1.332,1.201 3.097,-0.346 1.832,-1.606c-0.444,-0.443 -1.787,-0.599 -2.138,-0.249Z" style="fill:#6963d9;fill-rule:nonzero;"/><path d="M59.138,116.414c-0.347,0.231 -0.305,0.37 0.25,0.834c1.168,0.975 2.749,0.604 2.729,-0.64c-0.006,-0.378 -0.257,-0.47 -1.285,-0.47c-0.694,0 -1.467,0.126 -1.694,0.276Z" style="fill:#6963d9;fill-rule:nonzero;"/><path d="M23.816,120.438c-0.342,0.335 -0.222,1.422 0.194,1.767c1,0.827 2.975,-0.312 2.083,-1.201c-0.5,-0.497 -1.973,-0.864 -2.277,-0.566Z" style="fill:#6963d9;fill-rule:nonzero;"/><path d="M16.368,124.046c-0.473,0.569 -0.078,1.263 0.922,1.619c0.833,0.298 1.583,-0.155 1.583,-0.956c0,-0.995 -1.827,-1.479 -2.505,-0.663Z" style="fill:#6963d9;fill-rule:nonzero;"/><path d="M40.589,133.336c-0.195,0.194 -0.334,0.465 -0.334,0.65c0,0.176 -0.549,0.871 -1.235,1.562c-1.038,1.045 -1.458,1.27 -2.625,1.407c-1.694,0.198 -3.344,1.152 -3.356,1.939c-0.002,0.12 0.343,0.542 0.76,0.926c0.672,0.62 0.93,0.683 2.152,0.525c0.778,-0.1 1.816,-0.313 2.36,-0.482c1.306,-0.407 4.444,-2.946 4.444,-3.596c0,-0.29 0.186,-0.885 0.416,-1.327c0.402,-0.774 0.392,-0.821 -0.305,-1.362c-0.833,-0.647 -1.771,-0.746 -2.277,-0.242Z" style="fill:#6963d9;fill-rule:nonzero;"/></g></svg>